# xmcd CD Database Entry
#
# Track frame offsets:
# 150
# 14842
# 35921
# 54428
# 70419
# 91646
# 115331
# 130545
# 143620
# 160894
# 181826
# 196732
# 211894
#
# Disc length: 3074 seconds
#
# Revision: 1
# Processed by: cddbd v1.5.2PL0 Copyright (c) Steve Scherf et al.
# Submitted via: RSJCDWriter_freedb_lib_OS/2 1.03
#
DISCID=af0c000d
DTITLE=Grace Potter - Grace Potter and The Nocturnals
DYEAR=1900
DGENRE=blues
TTITLE0=Paris (Ooh La La)
TTITLE1=Oasis
TTITLE2=Medicine
TTITLE3=Goodbye Kiss
TTITLE4=Tiny Light
TTITLE5=Colors
TTITLE6=Only Love
TTITLE7=Money
TTITLE8=One Short Night
TTITLE9=Low Road
TTITLE10=That Phone
TTITLE11=Hot Summer Night
TTITLE12=Things I Never Needed
EXTD=Year: 2010
EXTT0=
EXTT1=
EXTT2=
EXTT3=
EXTT4=
EXTT5=
EXTT6=
EXTT7=
EXTT8=
EXTT9=
EXTT10=
EXTT11=
EXTT12=
PLAYORDER=
